<?xml version="1.0" encoding="UTF-8"?>
<svg width="107px" height="113px" viewBox="0 0 107 113" version="1.1" xmlns="http://www.w3.org/2000/svg" xmlns:xlink="http://www.w3.org/1999/xlink">
    <!-- Generator: Sketch 52.5 (67469) - http://www.bohemiancoding.com/sketch -->
    <title>Group 9</title>
    <desc>Created with Sketch.</desc>
    <g id="我的" stroke="none" stroke-width="1" fill="none" fill-rule="evenodd">
        <g id="我的_物业_我的二维码_邀请链接-copy" transform="translate(-129.000000, -187.000000)" fill-rule="nonzero">
            <g id="Group-8" transform="translate(47.000000, 164.000000)">
                <g id="Group-9" transform="translate(81.000000, 23.000000)">
                    <g id="Group-4" transform="translate(12.000000, 17.000000)" fill="#3582DA">
                        <circle id="Oval" opacity="0.3046875" cx="48" cy="48" r="48"></circle>
                        <path d="M41.2298787,67.1051719 L25.3906868,51.26598 C24.1410091,50.0163023 24.1410091,47.9901744 25.3906868,46.7404966 C26.6403646,45.4908189 28.6664925,45.4908189 29.9161702,46.7404966 L43.4926204,60.3169468 L66.1200374,37.6895298 C67.3697152,36.4398521 69.3958431,36.4398521 70.6455208,37.6895298 C71.8951986,38.9392076 71.8951986,40.9653355 70.6455208,42.2150132 L45.7553621,67.1051719 C44.5056844,68.3548497 42.4795565,68.3548497 41.2298787,67.1051719 Z" id="Path"></path>
                    </g>
                    <polygon id="Triangle" fill="#C1D9F3" transform="translate(14.352977, 13.451627) rotate(139.000000) translate(-14.352977, -13.451627) " points="14.3529765 3.45162706 23.3529765 23.4516271 5.35297651 23.4516271"></polygon>
                    <polygon id="Triangle" fill="#C1D9F3" transform="translate(5.488822, 28.488822) rotate(-149.000000) translate(-5.488822, -28.488822) " points="5.4888215 24.4888215 9.4888215 32.4888215 1.4888215 32.4888215"></polygon>
                </g>
            </g>
        </g>
    </g>
</svg>